<svg width="628" height="444" viewBox="0 0 628 444" fill="none" xmlns="http://www.w3.org/2000/svg">
<path d="M628 246.034C628 286.774 595.161 319.048 554.652 319.048C514.142 319.048 481.303 286.774 481.303 246.034C481.303 205.293 514.142 171.514 554.652 171.514C595.161 171.514 628 205.293 628 246.034Z" fill="#FFA800"/>
<path d="M106.328 101.953C106.328 98.6624 110.08 96.7793 112.718 98.7456L208.236 169.929C209.617 170.958 211.294 171.514 213.016 171.514H311.147C313.356 171.514 315.147 169.723 315.147 167.514V56.7012C315.147 53.0719 319.591 51.3184 322.069 53.9702L429.534 168.976C431.047 170.595 433.163 171.514 435.379 171.514H555.891C558.1 171.514 559.891 173.305 559.891 175.514V243.023V315.048C559.891 317.257 558.1 319.048 555.891 319.048H435.379C433.163 319.048 431.046 319.967 429.534 321.586L322.069 436.592C319.591 439.243 315.147 437.49 315.147 433.861V323.048C315.147 320.839 313.356 319.048 311.147 319.048H212.558C211.121 319.048 209.711 319.435 208.476 320.168L112.369 377.187C109.703 378.769 106.328 376.847 106.328 373.747V101.953Z" fill="#FFA800"/>
<path d="M106.328 171.281H272.466V262.382C272.466 269.009 267.093 274.382 260.466 274.382H106.328V171.281Z" fill="#F0821C"/>
<rect width="250.868" height="252.764" rx="12" fill="#FF8C20"/>
<path d="M59.8095 56.5393H86.5899L125.593 167.761L168.419 56.5393H192.72L139.019 194.562H112.874L59.8095 56.5393Z" fill="white"/>
</svg>
