<svg width="85" height="16" viewBox="0 0 85 16" fill="none" xmlns="http://www.w3.org/2000/svg">
<path d="M77.4796 10.7984C79.0806 10.7984 80.3788 9.50012 80.3788 7.89919C80.3788 6.29826 79.0806 5 77.4796 5C75.8787 5 74.5804 6.29826 74.5804 7.89919C74.5804 9.50012 75.8787 10.7984 77.4796 10.7984Z" fill="#FF8C20" stroke="#FF8C20" stroke-width="8.69756" stroke-linecap="round" stroke-linejoin="round"/>
<path d="M42.6894 10.7984C44.2903 10.7984 45.5886 9.50012 45.5886 7.89919C45.5886 6.29826 44.2903 5 42.6894 5C41.0885 5 39.7902 6.29826 39.7902 7.89919C39.7902 9.50012 41.0885 10.7984 42.6894 10.7984Z" fill="#FF8C20" stroke="#FF8C20" stroke-width="8.69756" stroke-linecap="round" stroke-linejoin="round"/>
<path d="M7.89919 10.7984C9.50035 10.7984 10.7984 9.50012 10.7984 7.89919C10.7984 6.29826 9.50035 5 7.89919 5C6.29802 5 5 6.29826 5 7.89919C5 9.50012 6.29802 10.7984 7.89919 10.7984Z" fill="#FF8C20" stroke="#FF8C20" stroke-width="8.69756" stroke-linecap="round" stroke-linejoin="round"/>
</svg>
