<svg width="82" height="80" viewBox="0 0 82 80" fill="none" xmlns="http://www.w3.org/2000/svg">
<path d="M34.7385 8.95096V27.4682C34.7385 28.2889 34.3155 29.0518 33.6197 29.4867L4.11878 47.9246C3.4228 48.3598 3 49.1227 3 49.9432V53.5098C3 55.0586 4.45533 56.1948 5.95771 55.8191L31.7807 49.3635C33.2832 48.9878 34.7385 50.1241 34.7385 51.6729V63.413C34.7385 64.0997 34.4421 64.7527 33.9256 65.2046L25.355 72.7036C23.5368 74.2949 24.9713 77.2696 27.3483 76.8371L40.2637 74.4889C40.545 74.4377 40.8338 74.4377 41.1151 74.4889L54.0307 76.8371C56.4075 77.2696 57.8421 74.2949 56.0238 72.7036L47.4533 65.2046C46.9367 64.7527 46.6404 64.0997 46.6404 63.413V51.6729C46.6404 50.1241 48.0956 48.9878 49.598 49.3635L75.4212 55.8191C76.9236 56.1948 78.3788 55.0586 78.3788 53.5098V49.9432C78.3788 49.1227 77.9559 48.3598 77.2601 47.9246L47.7592 29.4867C47.0633 29.0518 46.6404 28.2889 46.6404 27.4682V8.95096C46.6404 5.66432 43.9759 3 40.6894 3C37.4029 3 34.7385 5.66432 34.7385 8.95096Z" stroke="#FF8C20" stroke-width="5.95096" stroke-linecap="round" stroke-linejoin="round"/>
</svg>
